<svg width="6" height="12" viewBox="0 0 6 12" fill="none" xmlns="http://www.w3.org/2000/svg">
<path fill-rule="evenodd" clip-rule="evenodd" d="M0.348419 11.641C0.200559 11.589 0.0881823 11.4981 0.0359284 11.3882C-0.0163254 11.2783 -0.00419201 11.1584 0.0696688 11.0548L3.67842 5.99988L0.0684185 0.945877C0.0308946 0.89446 0.0082816 0.838351 0.00188297 0.780787C-0.00451565 0.723223 0.0054267 0.66534 0.0311369 0.610478C0.0568472 0.555616 0.0978164 0.504859 0.151683 0.461133C0.20555 0.417408 0.271249 0.381578 0.344991 0.355711C0.418734 0.329844 0.499061 0.314449 0.581343 0.310416C0.663625 0.306383 0.746234 0.313791 0.824407 0.332212C0.90258 0.350635 0.97477 0.379705 1.03682 0.417749C1.09886 0.455793 1.14954 0.502059 1.18592 0.553878L4.93592 5.80388C4.97947 5.86472 5.00215 5.93183 5.00215 5.99988C5.00215 6.06793 4.97947 6.13504 4.93592 6.19588L1.18592 11.4459C1.11165 11.5494 0.981784 11.628 0.824788 11.6646C0.667793 11.7012 0.496482 11.6927 0.348419 11.641Z" fill="#053863"/>
</svg>
