<svg width="10" height="5" viewBox="0 0 10 5" fill="none" xmlns="http://www.w3.org/2000/svg">
<path fill-rule="evenodd" clip-rule="evenodd" d="M0.970363 0.928952C1.0075 0.82545 1.07243 0.746786 1.15093 0.710208C1.22943 0.673631 1.31508 0.682124 1.38911 0.733827L4.99974 3.25995L8.60974 0.732952C8.64647 0.706685 8.68654 0.690856 8.72766 0.686377C8.76878 0.681898 8.81012 0.688858 8.84931 0.706855C8.8885 0.724852 8.92475 0.75353 8.95599 0.791237C8.98722 0.828944 9.01281 0.874933 9.03129 0.926553C9.04976 0.978172 9.06076 1.0344 9.06364 1.092C9.06652 1.1496 9.06123 1.20742 9.04807 1.26214C9.03491 1.31686 9.01415 1.3674 8.98697 1.41083C8.9598 1.45426 8.92675 1.48973 8.88974 1.5152L5.13974 4.1402C5.09628 4.17069 5.04835 4.18656 4.99974 4.18656C4.95113 4.18656 4.90319 4.17069 4.85974 4.1402L1.10974 1.5152C1.03581 1.46322 0.979619 1.37231 0.953493 1.26241C0.927366 1.15251 0.933432 1.0326 0.970363 0.928952Z" fill="#F3AC2E"/>
</svg>
