<svg width="48" height="48" viewBox="0 0 48 48" fill="none" xmlns="http://www.w3.org/2000/svg">
<circle cx="24" cy="24" r="24" fill="#F3AC2E"/>
<path d="M16.284 19.0644C15.9411 16.8027 17.5377 14.766 19.9767 14.0208C20.4096 13.8882 20.8768 13.9257 21.283 14.1257C21.6892 14.3257 22.0039 14.6732 22.1628 15.0972L22.9449 17.1852C23.0708 17.5212 23.0934 17.8871 23.0099 18.2361C22.9263 18.585 22.7404 18.901 22.476 19.1436L20.1495 21.2766C20.0347 21.382 19.9492 21.5153 19.9013 21.6635C19.8533 21.8118 19.8446 21.9699 19.8759 22.1226L19.8966 22.2162L19.9542 22.4511C20.0055 22.65 20.0829 22.929 20.1918 23.2611C20.4078 23.9226 20.7525 24.8118 21.2655 25.7001C21.7785 26.5893 22.3761 27.3318 22.8405 27.8502C23.0823 28.1196 23.3351 28.379 23.5983 28.6278L23.6703 28.6935C23.7865 28.7967 23.9276 28.868 24.0796 28.9005C24.2317 28.933 24.3895 28.9255 24.5379 28.8789L27.5493 27.9312C27.8913 27.8235 28.2577 27.8205 28.6015 27.9225C28.9453 28.0244 29.2508 28.2268 29.4789 28.5036L30.9036 30.2343C31.4976 30.9543 31.4274 32.0118 30.7443 32.6481C28.8777 34.3887 26.3109 34.7451 24.5253 33.3096C22.3365 31.544 20.4914 29.3908 19.0821 26.9574C17.661 24.5259 16.7117 21.848 16.284 19.0644ZM21.7614 22.2414L23.6928 20.4702C24.2213 19.9851 24.5929 19.3532 24.7599 18.6554C24.9268 17.9577 24.8815 17.226 24.6297 16.5543L23.8467 14.4663C23.5272 13.6132 22.8945 12.914 22.0774 12.5113C21.2603 12.1086 20.3204 12.0327 19.4493 12.2991C16.4217 13.227 13.9899 15.9414 14.5047 19.3344C14.8647 21.7032 15.6954 24.7164 17.526 27.8628C19.0461 30.4866 21.0362 32.8082 23.3967 34.7118C26.0742 36.8637 29.6508 36.1293 31.9719 33.9648C32.6357 33.3458 33.0386 32.4969 33.0983 31.5912C33.158 30.6855 32.8701 29.7911 32.2932 29.0904L30.8685 27.3597C30.4124 26.8058 29.8013 26.4008 29.1136 26.1967C28.4258 25.9925 27.6927 25.9986 27.0084 26.214L24.5091 27.0006C24.4137 26.9016 24.3021 26.7837 24.1806 26.6478C23.6669 26.0795 23.2124 25.4604 22.8243 24.8001C22.4464 24.1339 22.1373 23.4309 21.9018 22.7022C21.8518 22.5495 21.805 22.3959 21.7614 22.2414Z" fill="#053863"/>
</svg>
