<svg width="48" height="48" viewBox="0 0 48 48" fill="none" xmlns="http://www.w3.org/2000/svg">
<circle cx="24" cy="24" r="24" fill="#F3AC2E"/>
<g clip-path="url(#clip0)">
<path d="M24.0008 16.9125C24.0008 16.7036 23.9178 16.5033 23.7701 16.3557C23.6224 16.208 23.4221 16.125 23.2133 16.125C23.0044 16.125 22.8041 16.208 22.6564 16.3557C22.5087 16.5033 22.4258 16.7036 22.4258 16.9125V25.575C22.4258 25.7138 22.4626 25.8501 22.5323 25.9702C22.602 26.0902 22.7022 26.1897 22.8227 26.2585L28.3352 29.4085C28.5161 29.5063 28.7281 29.5294 28.9258 29.473C29.1235 29.4165 29.2913 29.285 29.3933 29.1065C29.4954 28.9279 29.5235 28.7166 29.4718 28.5176C29.42 28.3185 29.2925 28.1477 29.1164 28.0414L24.0008 25.1182V16.9125Z" fill="#053863"/>
<path d="M24.0004 36.6C27.3421 36.6 30.547 35.2725 32.9099 32.9096C35.2729 30.5466 36.6004 27.3418 36.6004 24C36.6004 20.6583 35.2729 17.4534 32.9099 15.0905C30.547 12.7275 27.3421 11.4 24.0004 11.4C20.6587 11.4 17.4538 12.7275 15.0908 15.0905C12.7279 17.4534 11.4004 20.6583 11.4004 24C11.4004 27.3418 12.7279 30.5466 15.0908 32.9096C17.4538 35.2725 20.6587 36.6 24.0004 36.6ZM35.0254 24C35.0254 26.924 33.8638 29.7283 31.7962 31.7959C29.7287 33.8635 26.9244 35.025 24.0004 35.025C21.0764 35.025 18.2721 33.8635 16.2045 31.7959C14.1369 29.7283 12.9754 26.924 12.9754 24C12.9754 21.076 14.1369 18.2718 16.2045 16.2042C18.2721 14.1366 21.0764 12.975 24.0004 12.975C26.9244 12.975 29.7287 14.1366 31.7962 16.2042C33.8638 18.2718 35.0254 21.076 35.0254 24Z" fill="#053863"/>
</g>
<defs>
<clipPath id="clip0">
<rect width="25.2" height="25.2" fill="white" transform="translate(11.4004 11.4)"/>
</clipPath>
</defs>
</svg>
