<svg width="48" height="48" viewBox="0 0 48 48" fill="none" xmlns="http://www.w3.org/2000/svg">
<circle cx="24" cy="24" r="24" fill="#F3AC2E"/>
<g clip-path="url(#clip0)">
<path d="M30.5622 25.4805C29.7369 27.1532 28.6187 28.8195 27.4752 30.3158C26.3905 31.7264 25.2307 33.0776 24.0008 34.3635C22.7708 33.0776 21.611 31.7264 20.5263 30.3158C19.3829 28.8195 18.2646 27.1532 17.4393 25.4805C16.6046 23.7905 16.1258 22.2077 16.1258 20.85C16.1258 18.7614 16.9555 16.7584 18.4323 15.2816C19.9092 13.8047 21.9122 12.975 24.0008 12.975C26.0894 12.975 28.0924 13.8047 29.5692 15.2816C31.0461 16.7584 31.8758 18.7614 31.8758 20.85C31.8758 22.2077 31.3954 23.7905 30.5622 25.4805ZM24.0008 36.6C24.0008 36.6 33.4508 27.6446 33.4508 20.85C33.4508 18.3437 32.4552 15.9401 30.6829 14.1679C28.9107 12.3956 26.5071 11.4 24.0008 11.4C21.4945 11.4 19.0908 12.3956 17.3186 14.1679C15.5464 15.9401 14.5508 18.3437 14.5508 20.85C14.5508 27.6446 24.0008 36.6 24.0008 36.6Z" fill="#053863"/>
<path d="M24.0004 24C23.165 24 22.3637 23.6681 21.773 23.0774C21.1823 22.4866 20.8504 21.6854 20.8504 20.85C20.8504 20.0146 21.1823 19.2134 21.773 18.6226C22.3637 18.0319 23.165 17.7 24.0004 17.7C24.8358 17.7 25.637 18.0319 26.2278 18.6226C26.8185 19.2134 27.1504 20.0146 27.1504 20.85C27.1504 21.6854 26.8185 22.4866 26.2278 23.0774C25.637 23.6681 24.8358 24 24.0004 24ZM24.0004 25.575C25.2535 25.575 26.4554 25.0772 27.3415 24.1911C28.2276 23.305 28.7254 22.1031 28.7254 20.85C28.7254 19.5969 28.2276 18.395 27.3415 17.5089C26.4554 16.6228 25.2535 16.125 24.0004 16.125C22.7472 16.125 21.5454 16.6228 20.6593 17.5089C19.7732 18.395 19.2754 19.5969 19.2754 20.85C19.2754 22.1031 19.7732 23.305 20.6593 24.1911C21.5454 25.0772 22.7472 25.575 24.0004 25.575Z" fill="#053863"/>
</g>
<defs>
<clipPath id="clip0">
<rect width="25.2" height="25.2" fill="white" transform="translate(11.4004 11.4)"/>
</clipPath>
</defs>
</svg>
