<svg width="651" height="101" viewBox="0 0 651 101" fill="none" xmlns="http://www.w3.org/2000/svg">
<path d="M59.139 4.45065C57.5491 3.84894 55.8122 3.73897 54.1578 4.13528C52.5035 4.53158 51.0094 5.41554 49.8726 6.67043L32.6508 27.7028C32.6508 27.7028 32.1354 29.1013 30.9589 29.1013C30.1634 29.1013 28.9196 27.2366 28.9196 27.2366L15.4066 7.66933C14.4085 6.17881 12.9522 5.04639 11.2536 4.43981C9.55485 3.83324 7.70411 3.78477 5.97544 4.30159C4.24676 4.8184 2.73212 5.87298 1.65586 7.30917C0.579609 8.74537 -0.00101486 10.4867 1.33162e-06 12.2753V52.5754C1.33162e-06 54.7832 0.885379 56.9005 2.46136 58.4615C4.03734 60.0227 6.17484 60.8996 8.40361 60.8996C10.6324 60.8996 12.7699 60.0227 14.3459 58.4615C15.9218 56.9005 16.8072 54.7832 16.8072 52.5754V42.5864C16.8072 42.5864 17.0986 40.5442 18.1406 40.6885C19.1826 40.8328 20.3816 43.4632 20.3816 43.4632L28.4154 57.1926C30.9701 61.0217 36.707 61.488 40.5726 58.9463C44.4383 56.4047 45.7941 51.965 43.2282 48.1359L41.1665 45.2169C40.5706 44.8448 40.0838 44.3244 39.7547 43.7074C39.4634 43.2413 40.1581 42.5975 40.1581 42.5975L44.8305 37.1702C44.8305 37.1702 46.2423 35.0393 46.8361 35.3611C47.43 35.683 47.7213 37.1147 47.7213 37.1147V52.5199C47.7213 53.6132 47.9387 54.6955 48.361 55.7055C48.7833 56.7154 49.4024 57.6331 50.1827 58.406C50.963 59.1791 51.8894 59.7922 52.909 60.2105C53.9286 60.6289 55.0214 60.8441 56.1249 60.8441C57.2285 60.8441 58.3213 60.6289 59.3408 60.2105C60.3605 59.7922 61.2869 59.1791 62.0672 58.406C62.8475 57.6331 63.4666 56.7154 63.8889 55.7055C64.3112 54.6955 64.5285 53.6132 64.5285 52.5199V12.242C64.5257 10.5553 64.0056 8.90917 63.0372 7.52175C62.0688 6.13433 60.6976 5.07107 59.1054 4.47283" fill="#F29F41"/>
<path d="M140.844 52.5422V12.2421C140.844 10.0344 139.959 7.91717 138.383 6.35609C136.807 4.79499 134.669 3.91797 132.441 3.91797C130.212 3.91797 128.074 4.79499 126.499 6.35609C124.922 7.91717 124.037 10.0344 124.037 12.2421V52.5422C124.037 54.75 124.922 56.8672 126.499 58.4283C128.074 59.9895 130.212 60.8664 132.441 60.8664C134.669 60.8664 136.807 59.9895 138.383 58.4283C139.959 56.8672 140.844 54.75 140.844 52.5422Z" fill="#F29F41"/>
<path d="M96.1262 35.6386C96.1814 35.7208 96.2114 35.817 96.2126 35.9158C96.2137 36.0145 96.1858 36.1115 96.1324 36.1948C96.0791 36.2782 96.0025 36.3444 95.9118 36.3856C95.8213 36.4268 95.7205 36.441 95.6219 36.4266H92.4958C92.3972 36.441 92.2965 36.4268 92.2058 36.3856C92.1153 36.3444 92.0386 36.2782 91.9853 36.1948C91.9319 36.1115 91.9041 36.0145 91.9052 35.9158C91.9063 35.817 91.9363 35.7208 91.9916 35.6386L93.6611 32.1868C93.8628 31.7539 94.2101 31.7539 94.423 32.1868L96.1262 35.6386ZM121.326 48.9017L117.807 41.7541C117.573 40.87 117.167 40.0403 116.609 39.3123L101.527 8.60166C100.842 7.19077 99.7686 6.00015 98.4305 5.16685C97.0926 4.33357 95.5442 3.89148 93.9636 3.89148C92.3831 3.89148 90.8347 4.33357 89.4967 5.16685C88.1586 6.00015 87.0853 7.19077 86.4004 8.60166L66.9376 48.9461C66.025 50.9308 65.9351 53.191 66.6873 55.2406C67.4395 57.2902 68.9736 58.9656 70.9599 59.9064C72.9461 60.8472 75.2257 60.9784 77.3086 60.2717C79.3914 59.5649 81.111 58.0768 82.0977 56.1271L84.7309 50.6887C85.101 50.7543 85.4755 50.7913 85.8513 50.7997H103.622L106.267 56.1826C107.241 58.1681 108.972 59.6888 111.079 60.41C113.185 61.1312 115.495 60.9939 117.499 60.0284C119.504 59.0629 121.039 57.3482 121.767 55.2616C122.496 53.1749 122.357 50.8872 121.382 48.9017" fill="#F29F41"/>
<path d="M143.063 50.1226C143.612 51.2325 148.789 60.8663 159.646 60.8663C169.607 60.8663 180.207 53.7963 180.207 40.7107C180.207 28.846 171.523 21.8426 161.854 20.7327C158.492 20.7327 159.355 18.746 160.307 17.9913C160.96 17.665 161.714 17.5975 162.414 17.8026C162.263 17.7196 162.116 17.6269 161.977 17.5251C163.816 18.6866 166.039 19.0943 168.175 18.6621C170.313 18.2299 172.197 16.9917 173.428 15.2091C174.661 13.4265 175.145 11.2393 174.78 9.10944C174.413 6.97965 173.225 5.07424 171.467 3.79583C168.735 2.09053 165.591 1.14256 162.362 1.05081C159.134 0.959062 155.941 1.72689 153.114 3.27419C145.472 7.21429 141.752 13.9513 143.164 21.3209C144.632 29.0125 152.027 36.3932 158.985 37.1147C158.985 37.1147 163.4 37.7585 163.4 40.6664C163.4 43.5743 161.047 44.1737 159.646 44.1737C158.961 43.7779 158.398 43.2016 158.022 42.5089C158.068 42.5841 158.108 42.662 158.145 42.7418V42.642C157.139 40.6845 155.393 39.2002 153.286 38.5124C151.181 37.8247 148.886 37.9893 146.902 38.9704C144.918 39.9516 143.406 41.6697 142.696 43.7503C141.984 45.831 142.133 48.1055 143.108 50.0782" fill="#F29F41"/>
<path d="M209.833 44.0849C207.236 44.0849 204.697 43.322 202.538 41.8927C200.377 40.4634 198.694 38.4317 197.7 36.0549C196.707 33.678 196.447 31.0625 196.953 28.5393C197.46 26.016 198.711 23.6982 200.548 21.879C202.384 20.0598 204.724 18.8209 207.272 18.319C209.818 17.8171 212.459 18.0747 214.858 19.0593C217.258 20.0438 219.309 21.711 220.752 23.8501C222.195 25.9893 222.965 28.5042 222.965 31.077C222.965 32.7852 222.626 34.4767 221.966 36.0549C221.306 37.6331 220.339 39.0671 219.118 40.2749C217.899 41.4828 216.452 42.441 214.858 43.0947C213.265 43.7485 211.557 44.0849 209.833 44.0849ZM209.833 1.6427C203.955 1.64052 198.209 3.36494 193.322 6.59789C188.433 9.83083 184.622 14.427 182.372 19.8052C180.121 25.1835 179.531 31.1021 180.676 36.8125C181.822 42.5229 184.65 47.7687 188.806 51.8863C192.961 56.0039 198.256 58.8082 204.021 59.9449C209.785 61.0815 215.76 60.4993 221.19 58.2718C226.621 56.0443 231.262 52.2716 234.528 47.431C237.794 42.5903 239.537 36.899 239.537 31.077C239.538 27.2121 238.772 23.3849 237.279 19.8138C235.787 16.2427 233.6 12.9978 230.841 10.2645C228.082 7.5311 224.807 5.3628 221.203 3.88345C217.598 2.40411 213.735 1.6427 209.833 1.6427Z" fill="#F29F41"/>
<path d="M276.389 3.91797C274.161 3.91797 272.023 4.79499 270.447 6.35609C268.871 7.91717 267.986 10.0344 267.986 12.2421V19.3565C267.986 19.3565 267.986 20.5552 267.549 20.6662C267.112 20.7772 266.249 19.4453 266.249 19.4453L255.907 6.95906C254.807 5.63568 253.321 4.68097 251.652 4.22535C249.985 3.76972 248.215 3.83538 246.586 4.4134C244.956 4.99142 243.547 6.05359 242.55 7.45479C241.553 8.856 241.017 10.5279 241.016 12.2421V52.5422C241.016 54.75 241.901 56.8672 243.477 58.4283C245.053 59.9895 247.191 60.8664 249.419 60.8664C251.648 60.8664 253.786 59.9895 255.361 58.4283C256.938 56.8672 257.823 54.75 257.823 52.5422V36.8706C257.823 36.8706 257.711 36.1602 258.047 36.0049C258.383 35.8495 258.652 36.5043 258.652 36.5043L266.148 45.5499L266.63 46.005C267.178 46.4955 267.641 47.0731 267.997 47.7142C268.221 48.2691 267.997 48.48 267.997 48.48V52.5422C267.997 54.75 268.882 56.8672 270.459 58.4283C272.034 59.9895 274.172 60.8664 276.4 60.8664C278.629 60.8664 280.767 59.9895 282.342 58.4283C283.919 56.8672 284.804 54.75 284.804 52.5422V12.2421C284.804 10.0344 283.919 7.91717 282.342 6.35609C280.767 4.79499 278.629 3.91797 276.4 3.91797" fill="#F29F41"/>
<path d="M327.573 45.9718C328.005 45.5239 328.56 45.2116 329.169 45.0735C329.779 44.9355 330.415 44.9775 331.001 45.1947C331.775 46.3046 332.469 46.893 329.679 48.8131C328.794 49.0351 328.559 49.1681 327.909 48.591C327.708 48.4449 327.539 48.2598 327.413 48.0469C327.286 47.8342 327.204 47.598 327.173 47.3529C327.141 47.1079 327.16 46.859 327.23 46.6216C327.298 46.3841 327.415 46.163 327.573 45.9718ZM341.018 56.0384C340.772 53.9074 341.568 52.0984 336.537 50.7887C336.649 49.2459 338.968 49.3568 340.1 44.9395C340.85 42.0316 339.046 39.6231 336.873 37.7585C333.186 34.5953 327.192 35.5387 323.27 38.1913C321.264 39.6804 319.775 41.7505 319.01 44.1151C318.246 46.4798 318.243 49.0215 319.001 51.388C322.363 60.9331 330.408 61.4436 335.439 60.5335L337.198 60.2005C339.607 59.7676 341.142 57.6033 340.962 56.0384" fill="#F29F41"/>
<path d="M354.767 56.5933V30.2556C354.797 29.6622 354.706 29.0687 354.497 28.5114C354.289 27.9543 353.967 27.4447 353.554 27.0141C353.14 26.5834 352.643 26.2406 352.091 26.0062C351.54 25.7719 350.946 25.6511 350.347 25.6511C349.747 25.6511 349.154 25.7719 348.602 26.0062C348.051 26.2406 347.553 26.5834 347.14 27.0141C346.727 27.4447 346.405 27.9543 346.197 28.5114C345.988 29.0687 345.896 29.6622 345.927 30.2556V56.5933C345.984 57.7164 346.474 58.7749 347.297 59.5498C348.119 60.3248 349.212 60.7569 350.347 60.7569C351.482 60.7569 352.574 60.3248 353.397 59.5498C354.219 58.7749 354.71 57.7164 354.767 56.5933Z" fill="#F29F41"/>
<path d="M368.594 52.2647C367.882 52.2647 367.188 52.0558 366.596 51.6642C366.005 51.2728 365.543 50.7164 365.271 50.0654C364.998 49.4144 364.928 48.698 365.067 48.0069C365.206 47.3158 365.547 46.681 366.05 46.1827C366.554 45.6845 367.195 45.3452 367.893 45.2077C368.59 45.0703 369.313 45.1407 369.97 45.4104C370.628 45.68 371.189 46.1367 371.585 46.7225C371.98 47.3085 372.191 47.9974 372.191 48.7019C372.191 49.6469 371.812 50.553 371.137 51.2211C370.463 51.8893 369.547 52.2647 368.594 52.2647ZM380.919 48.7019C380.916 46.0741 380.057 43.5175 378.469 41.4121C376.882 39.3065 374.651 37.7646 372.108 37.0154C369.565 36.2662 366.846 36.3496 364.355 37.2534C361.864 38.1572 359.733 39.833 358.281 42.0318C356.828 44.2306 356.131 46.8351 356.291 49.4581C356.452 52.0811 357.463 54.5827 359.174 56.591C360.885 58.5994 363.204 60.0074 365.788 60.6056C368.371 61.2039 371.08 60.9607 373.513 59.9118C374.286 60.5765 375.292 60.9151 376.314 60.8552C377.287 60.8417 378.228 60.5068 378.986 59.9036C379.746 59.3005 380.281 58.4635 380.505 57.5255V51.743C380.774 50.736 380.914 49.6993 380.919 48.6575" fill="#F29F41"/>
<path d="M412.595 45.4056H404.303C402.421 45.4056 402.712 42.8862 402.712 44.4178V12.6306C402.635 10.5904 401.762 8.6592 400.277 7.24285C398.793 5.82649 396.813 5.03516 394.751 5.03516C392.689 5.03516 390.709 5.82649 389.225 7.24285C387.74 8.6592 386.867 10.5904 386.79 12.6306V53.3191C386.79 55.412 387.629 57.4193 389.123 58.8992C390.618 60.379 392.643 61.2104 394.757 61.2104H412.595C414.654 61.1339 416.604 60.2696 418.034 58.7991C419.463 57.3286 420.262 55.3664 420.262 53.3247C420.262 51.283 419.463 49.3209 418.034 47.8504C416.604 46.3799 414.654 45.5155 412.595 45.4389" fill="#F29F41"/>
<path d="M477.157 4.75037H448.854C446.795 4.82692 444.845 5.69125 443.415 7.16176C441.985 8.63225 441.187 10.5945 441.187 12.6361C441.187 14.6779 441.985 16.64 443.415 18.1105C444.845 19.581 446.795 20.4453 448.854 20.5219H455.779V53.3191C455.738 54.3796 455.914 55.4372 456.296 56.4287C456.678 57.4202 457.259 58.3252 458.002 59.0894C458.744 59.8538 459.636 60.4617 460.622 60.877C461.608 61.2924 462.668 61.5063 463.74 61.5063C464.811 61.5063 465.871 61.2924 466.857 60.877C467.843 60.4617 468.735 59.8538 469.478 59.0894C470.22 58.3252 470.801 57.4202 471.183 56.4287C471.565 55.4372 471.741 54.3796 471.701 53.3191V20.5219H477.157C479.217 20.4453 481.166 19.581 482.596 18.1105C484.026 16.64 484.825 14.6779 484.825 12.6361C484.825 10.5945 484.026 8.63225 482.596 7.16176C481.166 5.69125 479.217 4.82692 477.157 4.75037Z" fill="#F29F41"/>
<path d="M541.282 20.5219H544.162C546.582 20.5219 548.644 21.2211 548.644 23.5186C548.644 25.816 547.378 26.2489 544.229 26.2489H541.282V20.5219ZM567.972 48.5688L559.008 36.7596C562.302 33.4299 564.174 28.7129 564.174 22.9747C564.174 10.4552 552.733 5.21653 545.047 4.76147H533.316C531.206 4.76147 529.182 5.59169 527.691 7.06952C526.198 8.54735 525.36 10.5517 525.36 12.6416V53.3302C525.32 54.3907 525.496 55.4483 525.878 56.4398C526.26 57.4313 526.84 58.3362 527.583 59.1005C528.326 59.8648 529.218 60.4729 530.204 60.8881C531.19 61.3034 532.25 61.5174 533.321 61.5174C534.392 61.5174 535.452 61.3034 536.438 60.8881C537.424 60.4729 538.316 59.8648 539.059 59.1005C539.802 58.3362 540.382 57.4313 540.765 56.4398C541.147 55.4483 541.322 54.3907 541.282 53.3302V42.0759H543.03L555.266 58.1249C556.538 59.794 558.427 60.8942 560.517 61.1835C562.608 61.4728 564.729 60.9276 566.415 59.6677C568.1 58.4079 569.21 56.5366 569.503 54.4655C569.794 52.3945 569.244 50.2933 567.972 48.6243" fill="#F29F41"/>
<path d="M305.13 51.6766C304.488 51.6708 303.86 51.4871 303.318 51.1465C302.777 50.8059 302.342 50.3218 302.063 49.749C301.784 49.1763 301.673 48.5377 301.741 47.9055C301.81 47.2733 302.055 46.6727 302.45 46.1716C302.846 45.6706 303.375 45.289 303.977 45.0703C304.579 44.8514 305.233 44.8039 305.861 44.9332C306.49 45.0626 307.069 45.3635 307.533 45.802C307.998 46.2405 308.33 46.7992 308.491 47.4146V49.1238C308.301 49.8608 307.866 50.513 307.256 50.9759C306.647 51.4387 305.897 51.6856 305.13 51.6766ZM317.253 51.2881C317.378 50.2855 317.378 49.2718 317.253 48.2692C317.36 47.3214 317.36 46.3647 317.253 45.4168V29.8672C317.253 28.7045 316.787 27.5894 315.957 26.7673C315.126 25.9451 314.002 25.4832 312.827 25.4832C311.653 25.4832 310.528 25.9451 309.698 26.7673C308.867 27.5894 308.401 28.7045 308.401 29.8672V36.3823C306.046 35.7406 303.554 35.7959 301.23 36.5417C298.906 37.2873 296.855 38.6905 295.328 40.5781C293.8 42.4657 292.864 44.7551 292.635 47.1636C292.406 49.5721 292.894 51.9943 294.039 54.1313C295.184 56.2682 296.935 58.0262 299.077 59.1884C301.219 60.3506 303.658 60.866 306.092 60.6711C308.527 60.4761 310.85 59.5793 312.776 58.0914C314.701 56.6034 316.145 54.5895 316.928 52.2981C317.042 51.9827 317.118 51.6547 317.152 51.3214" fill="#F29F41"/>
<path d="M515.332 45.4056H504.239C504.129 45.4168 504.019 45.4045 503.914 45.3696C503.809 45.3348 503.714 45.278 503.633 45.2034C503.552 45.1288 503.489 45.0379 503.446 44.9368C503.403 44.8358 503.384 44.7269 503.388 44.6176V41.7762C503.388 41.7762 503.388 41.0437 504.239 41.0437H509.438C510.484 41.0437 511.519 40.8396 512.485 40.4428C513.451 40.0461 514.329 39.4647 515.068 38.7318C515.806 37.9988 516.392 37.1288 516.791 36.1714C517.191 35.2141 517.395 34.1883 517.394 33.1524C517.397 32.0878 517.18 31.0338 516.755 30.0558C516.156 28.6106 515.135 27.3745 513.824 26.505C512.513 25.6354 510.971 25.1715 509.393 25.1723H504.206C504.121 25.1682 504.038 25.1494 503.959 25.1168C503.399 24.6839 503.388 23.4076 503.388 24.1401V21.7538C503.43 21.4605 503.537 21.18 503.701 20.9325C503.856 20.8489 504.03 20.8069 504.206 20.8104H515.298C517.35 20.5481 519.225 19.5234 520.542 17.9437C521.86 16.364 522.523 14.3473 522.397 12.3019C522.269 10.2565 521.362 8.33523 519.86 6.927C518.357 5.51877 516.37 4.72881 514.301 4.71704H495.432C493.547 4.71868 491.724 5.38354 490.287 6.59303C488.851 7.80252 487.895 9.47805 487.589 11.3209C487.481 11.8508 487.425 12.3897 487.421 12.9302V53.2747C487.42 54.3106 487.624 55.3364 488.024 56.2938C488.423 57.2511 489.009 58.1211 489.747 58.854C490.485 59.587 491.364 60.1684 492.33 60.5651C493.296 60.9619 494.331 61.166 495.376 61.166H515.276C516.346 61.2059 517.414 61.0313 518.416 60.6529C519.416 60.2746 520.329 59.7001 521.101 58.9639C521.873 58.2277 522.486 57.345 522.906 56.3684C523.326 55.3918 523.542 54.3415 523.542 53.2803C523.542 52.2191 523.326 51.1688 522.906 50.1922C522.486 49.2156 521.873 48.3328 521.101 47.5966C520.329 46.8604 519.416 46.2859 518.416 45.9076C517.414 45.5292 516.346 45.3547 515.276 45.3945" fill="#F29F41"/>
<path d="M439.195 52.5422V12.2421C439.195 10.0344 438.31 7.91717 436.733 6.35609C435.158 4.79499 433.02 3.91797 430.791 3.91797C428.563 3.91797 426.425 4.79499 424.849 6.35609C423.273 7.91717 422.388 10.0344 422.388 12.2421V52.5422C422.388 54.75 423.273 56.8672 424.849 58.4283C426.425 59.9895 428.563 60.8664 430.791 60.8664C433.02 60.8664 435.158 59.9895 436.733 58.4283C438.31 56.8672 439.195 54.75 439.195 52.5422Z" fill="#F29F41"/>
<path d="M588.959 52.5422V12.2421C588.959 10.0344 588.073 7.91717 586.497 6.35609C584.921 4.79499 582.784 3.91797 580.555 3.91797C578.326 3.91797 576.188 4.79499 574.613 6.35609C573.037 7.91717 572.151 10.0344 572.151 12.2421V52.5422C572.151 54.75 573.037 56.8672 574.613 58.4283C576.188 59.9895 578.326 60.8664 580.555 60.8664C582.784 60.8664 584.921 59.9895 586.497 58.4283C588.073 56.8672 588.959 54.75 588.959 52.5422Z" fill="#F29F41"/>
<path d="M620.87 45.4056H609.789C609.679 45.4168 609.568 45.4045 609.464 45.3696C609.358 45.3348 609.263 45.2781 609.182 45.2034C609.102 45.1288 609.038 45.0379 608.995 44.9368C608.953 44.8358 608.934 44.7269 608.937 44.6176V41.7762C608.937 41.7762 608.937 41.0437 609.789 41.0437H614.976C617.09 41.0437 619.116 40.2123 620.61 38.7325C622.104 37.2525 622.943 35.2453 622.943 33.1524C622.929 31.0499 622.083 29.0368 620.587 27.545C619.092 26.0531 617.065 25.2013 614.943 25.1723H609.744C609.66 25.1656 609.577 25.1469 609.497 25.1168C608.937 24.6839 608.937 23.4076 608.937 24.1401V21.7538C608.968 21.4597 609.073 21.1777 609.24 20.9325C609.394 20.8504 609.568 20.8084 609.744 20.8104H620.837C622.888 20.5481 624.763 19.5234 626.08 17.9437C627.398 16.364 628.061 14.3473 627.934 12.3019C627.807 10.2565 626.901 8.33523 625.398 6.927C623.896 5.51877 621.908 4.72881 619.839 4.71704H600.97C599.085 4.71645 597.259 5.3805 595.823 6.59039C594.385 7.80027 593.431 9.47708 593.127 11.3209C593.014 11.8501 592.958 12.3895 592.959 12.9302V53.2747C592.958 54.3106 593.162 55.3364 593.562 56.2938C593.961 57.2511 594.547 58.1212 595.285 58.854C596.024 59.587 596.902 60.1685 597.868 60.5651C598.834 60.9619 599.869 61.166 600.914 61.166H620.814C621.884 61.2059 622.952 61.0313 623.954 60.6529C624.954 60.2746 625.868 59.7001 626.64 58.9639C627.412 58.2277 628.025 57.345 628.445 56.3684C628.864 55.3918 629.08 54.3415 629.08 53.2803C629.08 52.2191 628.864 51.1688 628.445 50.1922C628.025 49.2156 627.412 48.3328 626.64 47.5966C625.868 46.8604 624.954 46.2859 623.954 45.9076C622.952 45.5292 621.884 45.3548 620.814 45.3945" fill="#F29F41"/>
<path d="M642.574 20.5218C644.106 20.5328 645.607 20.0928 646.886 19.2575C648.164 18.4223 649.165 17.2294 649.758 15.8303C650.352 14.4314 650.512 12.8893 650.219 11.3998C649.926 9.9103 649.193 8.54056 648.113 7.46442C647.033 6.38827 645.655 5.65423 644.152 5.35546C642.651 5.0567 641.093 5.20667 639.677 5.78634C638.262 6.36601 637.051 7.34927 636.201 8.61129C635.349 9.87332 634.897 11.3573 634.899 12.8747C634.887 13.8785 635.077 14.8746 635.458 15.8048C635.839 16.735 636.403 17.5807 637.118 18.2926C637.832 19.0045 638.683 19.5682 639.62 19.951C640.556 20.3337 641.561 20.5278 642.574 20.5218ZM642.574 6.88133C643.77 6.87253 644.942 7.21562 645.94 7.86711C646.94 8.5186 647.721 9.44912 648.185 10.5408C648.65 11.6325 648.776 12.8361 648.549 13.9991C648.321 15.1622 647.751 16.2323 646.909 17.0739C646.068 17.9154 644.992 18.4904 643.82 18.7262C642.648 18.9619 641.433 18.8476 640.327 18.3978C639.22 17.9481 638.273 17.1831 637.606 16.1998C636.939 15.2166 636.582 14.0593 636.58 12.8747C636.563 12.0878 636.706 11.3056 637.001 10.5748C637.296 9.84384 637.736 9.17904 638.295 8.61993C638.854 8.06082 639.521 7.6188 640.256 7.32012C640.991 7.02145 641.78 6.87222 642.574 6.88133Z" fill="#F29F41"/>
<path d="M643.997 13.4852C644.575 13.3847 645.094 13.0742 645.452 12.6142C645.811 12.1543 645.983 11.5783 645.935 10.9991C645.935 9.13444 644.613 8.32422 642.876 8.32422H639.515V17.0257H641.756V13.6961L643.918 17.0257H646.764L643.997 13.4852ZM641.756 10.0779H641.98C642.719 10.0779 643.56 10.2222 643.56 11.1877C643.56 12.1533 642.719 12.2976 641.98 12.2976H641.756V10.0779Z" fill="#F29F41"/>
<path d="M59.139 4.45065C57.5491 3.84894 55.8122 3.73897 54.1578 4.13528C52.5035 4.53158 51.0094 5.41554 49.8726 6.67043L32.6508 27.7028C32.6508 27.7028 32.1354 29.1013 30.9589 29.1013C30.1634 29.1013 28.9196 27.2366 28.9196 27.2366L15.4066 7.66933C14.4085 6.17881 12.9522 5.04639 11.2536 4.43981C9.55485 3.83324 7.70411 3.78477 5.97544 4.30159C4.24676 4.8184 2.73212 5.87298 1.65586 7.30917C0.579609 8.74537 -0.00101486 10.4867 1.33162e-06 12.2753V52.5754C1.33162e-06 54.7832 0.885379 56.9005 2.46136 58.4615C4.03734 60.0227 6.17484 60.8996 8.40361 60.8996C10.6324 60.8996 12.7699 60.0227 14.3459 58.4615C15.9218 56.9005 16.8072 54.7832 16.8072 52.5754V42.5864C16.8072 42.5864 17.0986 40.5442 18.1406 40.6885C19.1826 40.8328 20.3816 43.4632 20.3816 43.4632L28.4154 57.1926C30.9701 61.0217 36.707 61.488 40.5726 58.9463C44.4383 56.4047 45.7941 51.965 43.2282 48.1359L41.1665 45.2169C40.5706 44.8448 40.0838 44.3244 39.7547 43.7074C39.4634 43.2413 40.1581 42.5975 40.1581 42.5975L44.8305 37.1702C44.8305 37.1702 46.2423 35.0393 46.8361 35.3611C47.43 35.683 47.7213 37.1147 47.7213 37.1147V52.5199C47.7213 53.6132 47.9387 54.6955 48.361 55.7055C48.7833 56.7154 49.4024 57.6331 50.1827 58.406C50.963 59.1791 51.8894 59.7922 52.909 60.2105C53.9286 60.6289 55.0214 60.8441 56.1249 60.8441C57.2285 60.8441 58.3213 60.6289 59.3408 60.2105C60.3605 59.7922 61.2869 59.1791 62.0672 58.406C62.8475 57.6331 63.4666 56.7154 63.8889 55.7055C64.3112 54.6955 64.5285 53.6132 64.5285 52.5199V12.242C64.5257 10.5553 64.0056 8.90917 63.0372 7.52175C62.0688 6.13433 60.6976 5.07107 59.1054 4.47283" fill="#F29F41"/>
<path d="M140.844 52.5422V12.2421C140.844 10.0344 139.959 7.91717 138.383 6.35609C136.807 4.79499 134.669 3.91797 132.441 3.91797C130.212 3.91797 128.074 4.79499 126.499 6.35609C124.922 7.91717 124.037 10.0344 124.037 12.2421V52.5422C124.037 54.75 124.922 56.8672 126.499 58.4283C128.074 59.9895 130.212 60.8664 132.441 60.8664C134.669 60.8664 136.807 59.9895 138.383 58.4283C139.959 56.8672 140.844 54.75 140.844 52.5422Z" fill="#F29F41"/>
<path d="M96.1262 35.6386C96.1814 35.7208 96.2114 35.817 96.2126 35.9158C96.2137 36.0145 96.1858 36.1115 96.1324 36.1948C96.0791 36.2782 96.0025 36.3444 95.9118 36.3856C95.8213 36.4268 95.7205 36.441 95.6219 36.4266H92.4958C92.3972 36.441 92.2965 36.4268 92.2058 36.3856C92.1153 36.3444 92.0386 36.2782 91.9853 36.1948C91.9319 36.1115 91.9041 36.0145 91.9052 35.9158C91.9063 35.817 91.9363 35.7208 91.9916 35.6386L93.6611 32.1868C93.8628 31.7539 94.2101 31.7539 94.423 32.1868L96.1262 35.6386ZM121.326 48.9017L117.807 41.7541C117.573 40.87 117.167 40.0403 116.609 39.3123L101.527 8.60166C100.842 7.19077 99.7686 6.00015 98.4305 5.16685C97.0926 4.33357 95.5442 3.89148 93.9636 3.89148C92.3831 3.89148 90.8347 4.33357 89.4967 5.16685C88.1586 6.00015 87.0853 7.19077 86.4004 8.60166L66.9376 48.9461C66.025 50.9308 65.9351 53.191 66.6873 55.2406C67.4395 57.2902 68.9736 58.9656 70.9599 59.9064C72.9461 60.8472 75.2257 60.9784 77.3086 60.2717C79.3914 59.5649 81.111 58.0768 82.0977 56.1271L84.7309 50.6887C85.101 50.7543 85.4755 50.7913 85.8513 50.7997H103.622L106.267 56.1826C107.241 58.1681 108.972 59.6888 111.079 60.41C113.185 61.1312 115.495 60.9939 117.499 60.0284C119.504 59.0629 121.039 57.3482 121.767 55.2616C122.496 53.1749 122.357 50.8872 121.382 48.9017" fill="#F29F41"/>
<path d="M143.063 50.1226C143.612 51.2325 148.789 60.8663 159.646 60.8663C169.607 60.8663 180.207 53.7963 180.207 40.7107C180.207 28.846 171.523 21.8426 161.854 20.7327C158.492 20.7327 159.355 18.746 160.307 17.9913C160.96 17.665 161.714 17.5975 162.414 17.8026C162.263 17.7196 162.116 17.6269 161.977 17.5251C163.816 18.6866 166.039 19.0943 168.175 18.6621C170.313 18.2299 172.197 16.9917 173.428 15.2091C174.661 13.4265 175.145 11.2393 174.78 9.10944C174.413 6.97965 173.225 5.07424 171.467 3.79583C168.735 2.09053 165.591 1.14256 162.362 1.05081C159.134 0.959062 155.941 1.72689 153.114 3.27419C145.472 7.21429 141.752 13.9513 143.164 21.3209C144.632 29.0125 152.027 36.3932 158.985 37.1147C158.985 37.1147 163.4 37.7585 163.4 40.6664C163.4 43.5743 161.047 44.1737 159.646 44.1737C158.961 43.7779 158.398 43.2016 158.022 42.5089C158.068 42.5841 158.108 42.662 158.145 42.7418V42.642C157.139 40.6845 155.393 39.2002 153.286 38.5124C151.181 37.8247 148.886 37.9893 146.902 38.9704C144.918 39.9516 143.406 41.6697 142.696 43.7503C141.984 45.831 142.133 48.1055 143.108 50.0782" fill="#F29F41"/>
<path d="M209.833 44.0849C207.236 44.0849 204.697 43.322 202.538 41.8927C200.377 40.4634 198.694 38.4317 197.7 36.0549C196.707 33.678 196.447 31.0625 196.953 28.5393C197.46 26.016 198.711 23.6982 200.548 21.879C202.384 20.0598 204.724 18.8209 207.272 18.319C209.818 17.8171 212.459 18.0747 214.858 19.0593C217.258 20.0438 219.309 21.711 220.752 23.8501C222.195 25.9893 222.965 28.5042 222.965 31.077C222.965 32.7852 222.626 34.4767 221.966 36.0549C221.306 37.6331 220.339 39.0671 219.118 40.2749C217.899 41.4828 216.452 42.441 214.858 43.0947C213.265 43.7485 211.557 44.0849 209.833 44.0849ZM209.833 1.6427C203.955 1.64052 198.209 3.36494 193.322 6.59789C188.433 9.83083 184.622 14.427 182.372 19.8052C180.121 25.1835 179.531 31.1021 180.676 36.8125C181.822 42.5229 184.65 47.7687 188.806 51.8863C192.961 56.0039 198.256 58.8082 204.021 59.9449C209.785 61.0815 215.76 60.4993 221.19 58.2718C226.621 56.0443 231.262 52.2716 234.528 47.431C237.794 42.5903 239.537 36.899 239.537 31.077C239.538 27.2121 238.772 23.3849 237.279 19.8138C235.787 16.2427 233.6 12.9978 230.841 10.2645C228.082 7.5311 224.807 5.3628 221.203 3.88345C217.598 2.40411 213.735 1.6427 209.833 1.6427Z" fill="#F29F41"/>
<path d="M276.389 3.91797C274.161 3.91797 272.023 4.79499 270.447 6.35609C268.871 7.91717 267.986 10.0344 267.986 12.2421V19.3565C267.986 19.3565 267.986 20.5552 267.549 20.6662C267.112 20.7772 266.249 19.4453 266.249 19.4453L255.907 6.95906C254.807 5.63568 253.321 4.68097 251.652 4.22535C249.985 3.76972 248.215 3.83538 246.586 4.4134C244.956 4.99142 243.547 6.05359 242.55 7.45479C241.553 8.856 241.017 10.5279 241.016 12.2421V52.5422C241.016 54.75 241.901 56.8672 243.477 58.4283C245.053 59.9895 247.191 60.8664 249.419 60.8664C251.648 60.8664 253.786 59.9895 255.361 58.4283C256.938 56.8672 257.823 54.75 257.823 52.5422V36.8706C257.823 36.8706 257.711 36.1602 258.047 36.0049C258.383 35.8495 258.652 36.5043 258.652 36.5043L266.148 45.5499L266.63 46.005C267.178 46.4955 267.641 47.0731 267.997 47.7142C268.221 48.2691 267.997 48.48 267.997 48.48V52.5422C267.997 54.75 268.882 56.8672 270.459 58.4283C272.034 59.9895 274.172 60.8664 276.4 60.8664C278.629 60.8664 280.767 59.9895 282.342 58.4283C283.919 56.8672 284.804 54.75 284.804 52.5422V12.2421C284.804 10.0344 283.919 7.91717 282.342 6.35609C280.767 4.79499 278.629 3.91797 276.4 3.91797" fill="#F29F41"/>
<path d="M327.573 45.9718C328.005 45.5239 328.56 45.2116 329.169 45.0735C329.779 44.9355 330.415 44.9775 331.001 45.1947C331.775 46.3046 332.469 46.893 329.679 48.8131C328.794 49.0351 328.559 49.1681 327.909 48.591C327.708 48.4449 327.539 48.2598 327.413 48.0469C327.286 47.8342 327.204 47.598 327.173 47.3529C327.141 47.1079 327.16 46.859 327.23 46.6216C327.298 46.3841 327.415 46.163 327.573 45.9718ZM341.018 56.0384C340.772 53.9074 341.568 52.0984 336.537 50.7887C336.649 49.2459 338.968 49.3568 340.1 44.9395C340.85 42.0316 339.046 39.6231 336.873 37.7585C333.186 34.5953 327.192 35.5387 323.27 38.1913C321.264 39.6804 319.775 41.7505 319.01 44.1151C318.246 46.4798 318.243 49.0215 319.001 51.388C322.363 60.9331 330.408 61.4436 335.439 60.5335L337.198 60.2005C339.607 59.7676 341.142 57.6033 340.962 56.0384" fill="#F29F41"/>
<path d="M354.767 56.5933V30.2556C354.797 29.6622 354.706 29.0687 354.497 28.5114C354.289 27.9543 353.967 27.4447 353.554 27.0141C353.14 26.5834 352.643 26.2406 352.091 26.0062C351.54 25.7719 350.946 25.6511 350.347 25.6511C349.747 25.6511 349.154 25.7719 348.602 26.0062C348.051 26.2406 347.553 26.5834 347.14 27.0141C346.727 27.4447 346.405 27.9543 346.197 28.5114C345.988 29.0687 345.896 29.6622 345.927 30.2556V56.5933C345.984 57.7164 346.474 58.7749 347.297 59.5498C348.119 60.3248 349.212 60.7569 350.347 60.7569C351.482 60.7569 352.574 60.3248 353.397 59.5498C354.219 58.7749 354.71 57.7164 354.767 56.5933Z" fill="#F29F41"/>
<path d="M368.594 52.2647C367.882 52.2647 367.188 52.0558 366.596 51.6642C366.005 51.2728 365.543 50.7164 365.271 50.0654C364.998 49.4144 364.928 48.698 365.067 48.0069C365.206 47.3158 365.547 46.681 366.05 46.1827C366.554 45.6845 367.195 45.3452 367.893 45.2077C368.59 45.0703 369.313 45.1407 369.97 45.4104C370.628 45.68 371.189 46.1367 371.585 46.7225C371.98 47.3085 372.191 47.9974 372.191 48.7019C372.191 49.6469 371.812 50.553 371.137 51.2211C370.463 51.8893 369.547 52.2647 368.594 52.2647ZM380.919 48.7019C380.916 46.0741 380.057 43.5175 378.469 41.4121C376.882 39.3065 374.651 37.7646 372.108 37.0154C369.565 36.2662 366.846 36.3496 364.355 37.2534C361.864 38.1572 359.733 39.833 358.281 42.0318C356.828 44.2306 356.131 46.8351 356.291 49.4581C356.452 52.0811 357.463 54.5827 359.174 56.591C360.885 58.5994 363.204 60.0074 365.788 60.6056C368.371 61.2039 371.08 60.9607 373.513 59.9118C374.286 60.5765 375.292 60.9151 376.314 60.8552C377.287 60.8417 378.228 60.5068 378.986 59.9036C379.746 59.3005 380.281 58.4635 380.505 57.5255V51.743C380.774 50.736 380.914 49.6993 380.919 48.6575" fill="#F29F41"/>
<path d="M412.595 45.4056H404.303C402.421 45.4056 402.712 42.8862 402.712 44.4178V12.6306C402.635 10.5904 401.762 8.6592 400.277 7.24285C398.793 5.82649 396.813 5.03516 394.751 5.03516C392.689 5.03516 390.709 5.82649 389.225 7.24285C387.74 8.6592 386.867 10.5904 386.79 12.6306V53.3191C386.79 55.412 387.629 57.4193 389.123 58.8992C390.618 60.379 392.643 61.2104 394.757 61.2104H412.595C414.654 61.1339 416.604 60.2696 418.034 58.7991C419.463 57.3286 420.262 55.3664 420.262 53.3247C420.262 51.283 419.463 49.3209 418.034 47.8504C416.604 46.3799 414.654 45.5155 412.595 45.4389" fill="#F29F41"/>
<path d="M477.157 4.75037H448.854C446.795 4.82692 444.845 5.69125 443.415 7.16176C441.985 8.63225 441.187 10.5945 441.187 12.6361C441.187 14.6779 441.985 16.64 443.415 18.1105C444.845 19.581 446.795 20.4453 448.854 20.5219H455.779V53.3191C455.738 54.3796 455.914 55.4372 456.296 56.4287C456.678 57.4202 457.259 58.3252 458.002 59.0894C458.744 59.8538 459.636 60.4617 460.622 60.877C461.608 61.2924 462.668 61.5063 463.74 61.5063C464.811 61.5063 465.871 61.2924 466.857 60.877C467.843 60.4617 468.735 59.8538 469.478 59.0894C470.22 58.3252 470.801 57.4202 471.183 56.4287C471.565 55.4372 471.741 54.3796 471.701 53.3191V20.5219H477.157C479.217 20.4453 481.166 19.581 482.596 18.1105C484.026 16.64 484.825 14.6779 484.825 12.6361C484.825 10.5945 484.026 8.63225 482.596 7.16176C481.166 5.69125 479.217 4.82692 477.157 4.75037Z" fill="#F29F41"/>
<path d="M541.282 20.5219H544.162C546.582 20.5219 548.644 21.2211 548.644 23.5186C548.644 25.816 547.378 26.2489 544.229 26.2489H541.282V20.5219ZM567.972 48.5688L559.008 36.7596C562.302 33.4299 564.174 28.7129 564.174 22.9747C564.174 10.4552 552.733 5.21653 545.047 4.76147H533.316C531.206 4.76147 529.182 5.59169 527.691 7.06952C526.198 8.54735 525.36 10.5517 525.36 12.6416V53.3302C525.32 54.3907 525.496 55.4483 525.878 56.4398C526.26 57.4313 526.84 58.3362 527.583 59.1005C528.326 59.8648 529.218 60.4729 530.204 60.8881C531.19 61.3034 532.25 61.5174 533.321 61.5174C534.392 61.5174 535.452 61.3034 536.438 60.8881C537.424 60.4729 538.316 59.8648 539.059 59.1005C539.802 58.3362 540.382 57.4313 540.765 56.4398C541.147 55.4483 541.322 54.3907 541.282 53.3302V42.0759H543.03L555.266 58.1249C556.538 59.794 558.427 60.8942 560.517 61.1835C562.608 61.4728 564.729 60.9276 566.415 59.6677C568.1 58.4079 569.21 56.5366 569.503 54.4655C569.794 52.3945 569.244 50.2933 567.972 48.6243" fill="#F29F41"/>
<path d="M305.13 51.6766C304.488 51.6708 303.86 51.4871 303.318 51.1465C302.777 50.8059 302.342 50.3218 302.063 49.749C301.784 49.1763 301.673 48.5377 301.741 47.9055C301.81 47.2733 302.055 46.6727 302.45 46.1716C302.846 45.6706 303.375 45.289 303.977 45.0703C304.579 44.8514 305.233 44.8039 305.861 44.9332C306.49 45.0626 307.069 45.3635 307.533 45.802C307.998 46.2405 308.33 46.7992 308.491 47.4146V49.1238C308.301 49.8608 307.866 50.513 307.256 50.9759C306.647 51.4387 305.897 51.6856 305.13 51.6766ZM317.253 51.2881C317.378 50.2855 317.378 49.2718 317.253 48.2692C317.36 47.3214 317.36 46.3647 317.253 45.4168V29.8672C317.253 28.7045 316.787 27.5894 315.957 26.7673C315.126 25.9451 314.002 25.4832 312.827 25.4832C311.653 25.4832 310.528 25.9451 309.698 26.7673C308.867 27.5894 308.401 28.7045 308.401 29.8672V36.3823C306.046 35.7406 303.554 35.7959 301.23 36.5417C298.906 37.2873 296.855 38.6905 295.328 40.5781C293.8 42.4657 292.864 44.7551 292.635 47.1636C292.406 49.5721 292.894 51.9943 294.039 54.1313C295.184 56.2682 296.935 58.0262 299.077 59.1884C301.219 60.3506 303.658 60.866 306.092 60.6711C308.527 60.4761 310.85 59.5793 312.776 58.0914C314.701 56.6034 316.145 54.5895 316.928 52.2981C317.042 51.9827 317.118 51.6547 317.152 51.3214" fill="#F29F41"/>
<path d="M515.332 45.4056H504.239C504.129 45.4168 504.019 45.4045 503.914 45.3696C503.809 45.3348 503.714 45.278 503.633 45.2034C503.552 45.1288 503.489 45.0379 503.446 44.9368C503.403 44.8358 503.384 44.7269 503.388 44.6176V41.7762C503.388 41.7762 503.388 41.0437 504.239 41.0437H509.438C510.484 41.0437 511.519 40.8396 512.485 40.4428C513.451 40.0461 514.329 39.4647 515.068 38.7318C515.806 37.9988 516.392 37.1288 516.791 36.1714C517.191 35.2141 517.395 34.1883 517.394 33.1524C517.397 32.0878 517.18 31.0338 516.755 30.0558C516.156 28.6106 515.135 27.3745 513.824 26.505C512.513 25.6354 510.971 25.1715 509.393 25.1723H504.206C504.121 25.1682 504.038 25.1494 503.959 25.1168C503.399 24.6839 503.388 23.4076 503.388 24.1401V21.7538C503.43 21.4605 503.537 21.18 503.701 20.9325C503.856 20.8489 504.03 20.8069 504.206 20.8104H515.298C517.35 20.5481 519.225 19.5234 520.542 17.9437C521.86 16.364 522.523 14.3473 522.397 12.3019C522.269 10.2565 521.362 8.33523 519.86 6.927C518.357 5.51877 516.37 4.72881 514.301 4.71704H495.432C493.547 4.71868 491.724 5.38354 490.287 6.59303C488.851 7.80252 487.895 9.47805 487.589 11.3209C487.481 11.8508 487.425 12.3897 487.421 12.9302V53.2747C487.42 54.3106 487.624 55.3364 488.024 56.2938C488.423 57.2511 489.009 58.1211 489.747 58.854C490.485 59.587 491.364 60.1684 492.33 60.5651C493.296 60.9619 494.331 61.166 495.376 61.166H515.276C516.346 61.2059 517.414 61.0313 518.416 60.6529C519.416 60.2746 520.329 59.7001 521.101 58.9639C521.873 58.2277 522.486 57.345 522.906 56.3684C523.326 55.3918 523.542 54.3415 523.542 53.2803C523.542 52.2191 523.326 51.1688 522.906 50.1922C522.486 49.2156 521.873 48.3328 521.101 47.5966C520.329 46.8604 519.416 46.2859 518.416 45.9076C517.414 45.5292 516.346 45.3547 515.276 45.3945" fill="#F29F41"/>
<path d="M439.195 52.5422V12.2421C439.195 10.0344 438.31 7.91717 436.733 6.35609C435.158 4.79499 433.02 3.91797 430.791 3.91797C428.563 3.91797 426.425 4.79499 424.849 6.35609C423.273 7.91717 422.388 10.0344 422.388 12.2421V52.5422C422.388 54.75 423.273 56.8672 424.849 58.4283C426.425 59.9895 428.563 60.8664 430.791 60.8664C433.02 60.8664 435.158 59.9895 436.733 58.4283C438.31 56.8672 439.195 54.75 439.195 52.5422Z" fill="#F29F41"/>
<path d="M588.959 52.5422V12.2421C588.959 10.0344 588.073 7.91717 586.497 6.35609C584.921 4.79499 582.784 3.91797 580.555 3.91797C578.326 3.91797 576.188 4.79499 574.613 6.35609C573.037 7.91717 572.151 10.0344 572.151 12.2421V52.5422C572.151 54.75 573.037 56.8672 574.613 58.4283C576.188 59.9895 578.326 60.8664 580.555 60.8664C582.784 60.8664 584.921 59.9895 586.497 58.4283C588.073 56.8672 588.959 54.75 588.959 52.5422Z" fill="#F29F41"/>
<path d="M620.87 45.4056H609.789C609.679 45.4168 609.568 45.4045 609.464 45.3696C609.358 45.3348 609.263 45.2781 609.182 45.2034C609.102 45.1288 609.038 45.0379 608.995 44.9368C608.953 44.8358 608.934 44.7269 608.937 44.6176V41.7762C608.937 41.7762 608.937 41.0437 609.789 41.0437H614.976C617.09 41.0437 619.116 40.2123 620.61 38.7325C622.104 37.2525 622.943 35.2453 622.943 33.1524C622.929 31.0499 622.083 29.0368 620.587 27.545C619.092 26.0531 617.065 25.2013 614.943 25.1723H609.744C609.66 25.1656 609.577 25.1469 609.497 25.1168C608.937 24.6839 608.937 23.4076 608.937 24.1401V21.7538C608.968 21.4597 609.073 21.1777 609.24 20.9325C609.394 20.8504 609.568 20.8084 609.744 20.8104H620.837C622.888 20.5481 624.763 19.5234 626.08 17.9437C627.398 16.364 628.061 14.3473 627.934 12.3019C627.807 10.2565 626.901 8.33523 625.398 6.927C623.896 5.51877 621.908 4.72881 619.839 4.71704H600.97C599.085 4.71645 597.259 5.3805 595.823 6.59039C594.385 7.80027 593.431 9.47708 593.127 11.3209C593.014 11.8501 592.958 12.3895 592.959 12.9302V53.2747C592.958 54.3106 593.162 55.3364 593.562 56.2938C593.961 57.2511 594.547 58.1212 595.285 58.854C596.024 59.587 596.902 60.1685 597.868 60.5651C598.834 60.9619 599.869 61.166 600.914 61.166H620.814C621.884 61.2059 622.952 61.0313 623.954 60.6529C624.954 60.2746 625.868 59.7001 626.64 58.9639C627.412 58.2277 628.025 57.345 628.445 56.3684C628.864 55.3918 629.08 54.3415 629.08 53.2803C629.08 52.2191 628.864 51.1688 628.445 50.1922C628.025 49.2156 627.412 48.3328 626.64 47.5966C625.868 46.8604 624.954 46.2859 623.954 45.9076C622.952 45.5292 621.884 45.3548 620.814 45.3945" fill="#F29F41"/>
<path d="M642.574 20.5218C644.106 20.5328 645.607 20.0928 646.886 19.2575C648.164 18.4223 649.165 17.2294 649.758 15.8303C650.352 14.4314 650.512 12.8893 650.219 11.3998C649.926 9.9103 649.193 8.54056 648.113 7.46442C647.033 6.38827 645.655 5.65423 644.152 5.35546C642.651 5.0567 641.093 5.20667 639.677 5.78634C638.262 6.36601 637.051 7.34927 636.201 8.61129C635.349 9.87332 634.897 11.3573 634.899 12.8747C634.887 13.8785 635.077 14.8746 635.458 15.8048C635.839 16.735 636.403 17.5807 637.118 18.2926C637.832 19.0045 638.683 19.5682 639.62 19.951C640.556 20.3337 641.561 20.5278 642.574 20.5218ZM642.574 6.88133C643.77 6.87253 644.942 7.21562 645.94 7.86711C646.94 8.5186 647.721 9.44912 648.185 10.5408C648.65 11.6325 648.776 12.8361 648.549 13.9991C648.321 15.1622 647.751 16.2323 646.909 17.0739C646.068 17.9154 644.992 18.4904 643.82 18.7262C642.648 18.9619 641.433 18.8476 640.327 18.3978C639.22 17.9481 638.273 17.1831 637.606 16.1998C636.939 15.2166 636.582 14.0593 636.58 12.8747C636.563 12.0878 636.706 11.3056 637.001 10.5748C637.296 9.84384 637.736 9.17904 638.295 8.61993C638.854 8.06082 639.521 7.6188 640.256 7.32012C640.991 7.02145 641.78 6.87222 642.574 6.88133Z" fill="#F29F41"/>
<path d="M643.997 13.4852C644.575 13.3847 645.094 13.0742 645.452 12.6142C645.811 12.1543 645.983 11.5783 645.935 10.9991C645.935 9.13444 644.613 8.32422 642.876 8.32422H639.515V17.0257H641.756V13.6961L643.918 17.0257H646.764L643.997 13.4852ZM641.756 10.0779H641.98C642.719 10.0779 643.56 10.2222 643.56 11.1877C643.56 12.1533 642.719 12.2976 641.98 12.2976H641.756V10.0779Z" fill="#F29F41"/>
<path d="M289.828 96.2379C288.965 97.4619 287.759 98.3799 286.208 98.9919C284.67 99.5923 282.874 99.8925 280.822 99.8925C278.748 99.8925 276.906 99.4133 275.297 98.455C273.688 97.485 272.441 96.111 271.555 94.3327C270.681 92.5544 270.233 90.4934 270.209 88.1493V85.9496C270.209 82.1507 271.101 79.2062 272.885 77.1162C274.68 75.0263 277.197 73.9813 280.438 73.9813C283.096 73.9813 285.235 74.6568 286.855 76.0078C288.475 77.3472 289.467 79.2524 289.828 81.7235H286.471C285.841 78.3865 283.836 76.7179 280.456 76.7179C278.206 76.7179 276.498 77.5031 275.332 79.0735C274.178 80.6323 273.595 82.8955 273.584 85.863V87.9242C273.584 90.7532 274.236 93.0048 275.542 94.6791C276.848 96.3418 278.614 97.1733 280.84 97.1733C282.1 97.1733 283.201 97.0346 284.144 96.7576C285.089 96.4805 285.87 96.0128 286.489 95.3546V89.6908H280.596V86.9889H289.828V96.2379Z" fill="#F29F41"/>
<path d="M309.832 87.8895H298.798V96.8268H311.616V99.546H295.441V74.3276H311.441V77.0642H298.798V85.1702H309.832V87.8895Z" fill="#F29F41"/>
<path d="M335.36 99.546H331.985L319.168 80.1126V99.546H315.793V74.3276H319.168L332.02 93.8476V74.3276H335.36V99.546Z" fill="#F29F41"/>
<path d="M355.714 87.8895H344.68V96.8268H357.496V99.546H341.322V74.3277H357.322V77.0642H344.68V85.1702H355.714V87.8895ZM351.045 72.457H348.265L343.753 67.3649H347.652L351.045 72.457Z" fill="#F29F41"/>
<path d="M370.104 95.1293L377.378 74.3276H381.05L371.608 99.546H368.635L359.211 74.3276H362.865L370.104 95.1293Z" fill="#F29F41"/>
<path d="M398.868 87.8895H387.835V96.8268H400.652V99.546H384.478V74.3276H400.477V77.0642H387.835V85.1702H398.868V87.8895Z" fill="#F29F41"/>
</svg>
