<svg width="112" height="112" viewBox="0 0 112 112" fill="none" xmlns="http://www.w3.org/2000/svg">
<path d="M87.9882 78.6532C93.1035 74.0941 96 68.0172 96 61.7111C96 55.0092 92.8627 48.7415 87.1657 44.0614C81.6211 39.508 74.2821 37 66.4996 37C58.7171 37 51.378 39.508 45.8343 44.0617C40.1373 48.7415 37 55.0092 37 61.7111C37 68.413 40.1373 74.6807 45.8343 79.3608C51.378 83.9146 58.7171 86.4224 66.4996 86.4224C67.5366 86.4224 68.58 86.3766 69.6146 86.2856L71.3823 87.8178C77.4719 93.0947 85.2596 95.9997 93.3174 96H95.9992V90.2916L95.2137 89.5063C92.1153 86.3987 89.66 82.7106 87.9882 78.6532ZM74.8951 83.7642L71.3482 80.69L70.1656 80.835C68.9492 80.9837 67.725 81.0583 66.4996 81.0584C53.1912 81.0584 42.3636 72.3792 42.3636 61.7111C42.3636 51.043 53.1912 42.3636 66.4996 42.3636C79.8079 42.3636 90.6356 51.0428 90.6356 61.7111C90.6356 67.0261 87.984 71.9882 83.1692 75.683L81.6247 76.8682L82.3373 78.8855C83.7979 83.0054 85.9446 86.8486 88.6868 90.2525C83.5801 89.4001 78.8077 87.1549 74.8951 83.7642Z" fill="#F3AC2E"/>
<path d="M23.4128 66.246C25.9255 63.0862 27.8984 59.5376 29.2525 55.7422L29.9605 53.7463L28.4158 52.5687C23.8713 49.1043 21.3686 44.4547 21.3686 39.4762C21.3686 29.4722 31.6039 21.3333 44.185 21.3333C53.4404 21.3333 61.426 25.7383 65.0011 32.05C65.665 32.018 66.3317 32 67.0014 32C68.3466 32 69.6794 32.0648 71 32.1945C69.6184 28.6387 67.219 25.3927 63.9202 22.701C58.6251 18.3798 51.6171 16 44.185 16C36.7529 16 29.7449 18.3798 24.4495 22.701C19.0007 27.1475 16 33.105 16 39.4762C16 45.4428 18.7433 51.192 23.5915 55.5167C22.0093 59.2992 19.6975 62.7376 16.7863 65.6382L16 66.4192V72H18.6843C23.648 71.9994 28.5435 70.851 32.9833 68.6458C32.4965 66.8127 32.2112 64.9326 32.1326 63.0383C29.4378 64.6073 26.4863 65.6931 23.4128 66.246Z" fill="#F3AC2E"/>
</svg>
