<svg width="112" height="112" viewBox="0 0 112 112" fill="none" xmlns="http://www.w3.org/2000/svg">
<path d="M86.8468 55.7947C88.2328 53.9629 89 51.7185 89 49.3834C89 45.6785 86.9293 42.1716 83.5963 40.216C82.7382 39.7127 81.7613 39.4477 80.7665 39.4487H60.983L61.478 29.3077C61.5935 26.857 60.7273 24.5301 59.0443 22.756C58.2183 21.8816 57.2219 21.1859 56.1165 20.7119C55.0111 20.2378 53.8202 19.9956 52.6175 20.0001C48.3275 20.0001 44.5325 22.8881 43.394 27.022L36.3072 52.6839H25.64C24.1797 52.6839 23 53.8639 23 55.3244V85.3596C23 86.82 24.1797 88 25.64 88H75.2472C76.0063 88 76.7488 87.8515 77.4335 87.5544C81.3605 85.8794 83.8932 82.0425 83.8932 77.7847C83.8932 76.7451 83.7448 75.7219 83.4478 74.7317C84.8338 72.8999 85.601 70.6555 85.601 68.3204C85.601 67.2807 85.4525 66.2575 85.1555 65.2673C86.5415 63.4355 87.3088 61.1911 87.3088 58.856C87.2923 57.8163 87.1438 56.7849 86.8468 55.7947ZM28.94 82.059V58.625H35.6225V82.059H28.94ZM81.443 52.9315L79.6363 54.4992L80.783 56.5951C81.1608 57.2855 81.3567 58.0607 81.3523 58.8477C81.3523 60.2092 80.7583 61.5047 79.7353 62.3959L77.9285 63.9636L79.0753 66.0595C79.4531 66.7499 79.6489 67.5251 79.6445 68.3121C79.6445 69.6736 79.0505 70.9691 78.0275 71.8602L76.2207 73.428L77.3675 75.5239C77.7453 76.2143 77.9412 76.9895 77.9368 77.7765C77.9368 79.6248 76.8478 81.2916 75.1648 82.0507H40.9025V58.3609L49.1113 28.6145C49.3229 27.8521 49.7773 27.1795 50.4055 26.6985C51.0338 26.2176 51.8016 25.9546 52.5928 25.9493C53.2198 25.9493 53.8385 26.1309 54.3335 26.5022C55.1502 27.1128 55.5875 28.0369 55.538 29.0189L54.746 45.3897H80.684C82.1525 46.2891 83.06 47.8073 83.06 49.3834C83.06 50.7448 82.466 52.0321 81.443 52.9315Z" fill="#F3AC2E"/>
</svg>
