<svg width="112" height="112" viewBox="0 0 112 112" fill="none" xmlns="http://www.w3.org/2000/svg">
<path d="M86 79.1045H88.5C88.5 78.9807 88.4908 78.8571 88.4725 78.7347L86 79.1045ZM26 79.1045L23.5275 78.7347C23.5092 78.8571 23.5 78.9807 23.5 79.1045H26ZM34.9286 20C34.9286 18.6193 33.8093 17.5 32.4286 17.5C31.0479 17.5 29.9286 18.6193 29.9286 20H34.9286ZM82.0714 20C82.0714 18.6193 80.9521 17.5 79.5714 17.5C78.1907 17.5 77.0714 18.6193 77.0714 20H82.0714ZM39.9286 41.4925H37.4286C37.4286 42.8732 38.5479 43.9925 39.9286 43.9925V41.4925ZM72.0714 41.4925V43.9925C73.4521 43.9925 74.5714 42.8732 74.5714 41.4925H72.0714ZM72.0714 31.1429H74.5714C74.5714 29.7621 73.4521 28.6429 72.0714 28.6429V31.1429ZM39.9286 31.1429V28.6429C38.5479 28.6429 37.4286 29.7621 37.4286 31.1429H39.9286ZM30.6607 47.9403L28.1882 47.5705L30.6607 47.9403ZM81.3393 47.9403L83.8118 47.5705L81.3393 47.9403ZM26 92H23.5C23.5 93.3807 24.6193 94.5 26 94.5V92ZM34.5714 92V94.5C35.9521 94.5 37.0714 93.3807 37.0714 92H34.5714ZM34.5714 87.7015V85.2015C33.1907 85.2015 32.0714 86.3208 32.0714 87.7015H34.5714ZM77.4286 87.7015H79.9286C79.9286 86.3208 78.8093 85.2015 77.4286 85.2015V87.7015ZM77.4286 92H74.9286C74.9286 93.3807 76.0479 94.5 77.4286 94.5V92ZM86 92V94.5C87.3807 94.5 88.5 93.3807 88.5 92H86ZM86 76.6045H26V81.6045H86V76.6045ZM34.9286 36.1194V24.2985H29.9286V36.1194H34.9286ZM34.9286 24.2985V20H29.9286V24.2985H34.9286ZM32.4286 26.7985H79.5714V21.7985H32.4286V26.7985ZM77.0714 24.2985V36.1194H82.0714V24.2985H77.0714ZM77.0714 20V24.2985H82.0714V20H77.0714ZM39.9286 43.9925H72.0714V38.9925H39.9286V43.9925ZM72.0714 28.6429H39.9286V33.6429H72.0714V28.6429ZM37.4286 31.1429V36.1194H42.4286V31.1429H37.4286ZM37.4286 36.1194V41.4925H42.4286V36.1194H37.4286ZM32.4286 38.6194H39.9286V33.6194H32.4286V38.6194ZM72.0714 38.6194H79.5714V33.6194H72.0714V38.6194ZM74.5714 41.4925V36.1194H69.5714V41.4925H74.5714ZM74.5714 36.1194V31.1429H69.5714V36.1194H74.5714ZM28.4725 79.4743L33.1332 48.3101L28.1882 47.5705L23.5275 78.7347L28.4725 79.4743ZM33.1332 48.3101L34.9011 36.4892L29.9561 35.7496L28.1882 47.5705L33.1332 48.3101ZM77.0989 36.4892L78.8668 48.3101L83.8118 47.5705L82.0439 35.7496L77.0989 36.4892ZM26 94.5H34.5714V89.5H26V94.5ZM37.0714 92V87.7015H32.0714V92H37.0714ZM34.5714 90.2015H77.4286V85.2015H34.5714V90.2015ZM74.9286 87.7015V92H79.9286V87.7015H74.9286ZM77.4286 94.5H86V89.5H77.4286V94.5ZM88.5 92V79.1045H83.5V92H88.5ZM23.5 79.1045V92H28.5V79.1045H23.5ZM78.8668 48.3101L80.5849 59.7983L85.5299 59.0588L83.8118 47.5705L78.8668 48.3101ZM80.5849 59.7983L83.5275 79.4743L88.4725 78.7347L85.5299 59.0588L80.5849 59.7983ZM30.1253 50.3823L82.522 61.8706L83.5928 56.9866L31.1961 45.4983L30.1253 50.3823Z" fill="#F3AC2E"/>
<path fill-rule="evenodd" clip-rule="evenodd" d="M4.87376 61.3532C3.70875 60.3754 3.70875 58.7901 4.87376 57.8124L14.9384 48.7333C16.1034 47.7556 17.9922 47.7556 19.1572 48.7333C20.3223 49.7111 20.3223 51.2963 19.1572 52.2741L14.1853 57.0791H38.8039C38.8039 57.0791 39.7983 57.318 39.7983 59.5827C39.7984 61.8474 38.8039 62.0865 38.8039 62.0865H14.1853L19.1572 67.7259C20.3223 68.7037 20.3223 70.2889 19.1572 71.2667C17.9922 72.2444 16.1034 72.2444 14.9384 71.2667L4.87376 61.3532Z" fill="#F3AC2E"/>
</svg>
