<svg width="112" height="112" viewBox="0 0 112 112" fill="none" xmlns="http://www.w3.org/2000/svg">
<path d="M22 20V17.5C20.6193 17.5 19.5 18.6193 19.5 20H22ZM30.0952 20H32.5952C32.5952 18.6193 31.476 17.5 30.0952 17.5V20ZM30.0952 91V93.5C31.476 93.5 32.5952 92.3807 32.5952 91H30.0952ZM22 91H19.5C19.5 92.3807 20.6193 93.5 22 93.5V91ZM82.7143 20V17.5C81.3336 17.5 80.2143 18.6193 80.2143 20H82.7143ZM90 20H92.5C92.5 18.6193 91.3807 17.5 90 17.5V20ZM90 91V93.5C91.3807 93.5 92.5 92.3807 92.5 91H90ZM82.7143 91H80.2143C80.2143 92.3807 81.3336 93.5 82.7143 93.5V91ZM38.1905 26.4545V23.9545C36.8098 23.9545 35.6905 25.0738 35.6905 26.4545H38.1905ZM57.619 26.4545H60.119C60.119 25.0738 58.9998 23.9545 57.619 23.9545V26.4545ZM45.4048 31.2955C45.4048 32.6762 46.524 33.7955 47.9048 33.7955C49.2855 33.7955 50.4048 32.6762 50.4048 31.2955H45.4048ZM53.5714 76.4773H51.0714C51.0714 77.858 52.1907 78.9773 53.5714 78.9773V76.4773ZM53.5714 57.1136V54.6136C52.1907 54.6136 51.0714 55.7329 51.0714 57.1136H53.5714ZM73 57.1136H75.5C75.5 55.7329 74.3807 54.6136 73 54.6136V57.1136ZM73 76.4773V78.9773C74.3807 78.9773 75.5 77.858 75.5 76.4773H73ZM60.7857 61.9545C60.7857 63.3353 61.905 64.4545 63.2857 64.4545C64.6664 64.4545 65.7857 63.3353 65.7857 61.9545H60.7857ZM22 22.5H30.0952V17.5H22V22.5ZM30.0952 88.5H22V93.5H30.0952V88.5ZM24.5 91V20H19.5V91H24.5ZM82.7143 22.5H90V17.5H82.7143V22.5ZM87.5 20V91H92.5V20H87.5ZM90 88.5H82.7143V93.5H90V88.5ZM27.5952 20V45.8182H32.5952V20H27.5952ZM85.2143 45.8182V20H80.2143V45.8182H85.2143ZM27.5952 45.8182V76.4773H32.5952V45.8182H27.5952ZM27.5952 76.4773V91H32.5952V76.4773H27.5952ZM85.2143 91V76.4773H80.2143V91H85.2143ZM85.2143 76.4773V45.8182H80.2143V76.4773H85.2143ZM30.0952 78.9773H82.7143V73.9773H30.0952V78.9773ZM30.0952 48.3182H38.1905V43.3182H30.0952V48.3182ZM40.6905 45.8182V26.4545H35.6905V45.8182H40.6905ZM38.1905 48.3182H57.619V43.3182H38.1905V48.3182ZM57.619 48.3182H82.7143V43.3182H57.619V48.3182ZM55.119 26.4545V45.8182H60.119V26.4545H55.119ZM38.1905 28.9545H47.9048V23.9545H38.1905V28.9545ZM47.9048 28.9545H57.619V23.9545H47.9048V28.9545ZM45.4048 26.4545V31.2955H50.4048V26.4545H45.4048ZM56.0714 76.4773V57.1136H51.0714V76.4773H56.0714ZM53.5714 78.9773H73V73.9773H53.5714V78.9773ZM70.5 57.1136V76.4773H75.5V57.1136H70.5ZM53.5714 59.6136H63.2857V54.6136H53.5714V59.6136ZM63.2857 59.6136H73V54.6136H63.2857V59.6136ZM60.7857 57.1136V61.9545H65.7857V57.1136H60.7857Z" fill="#F3AC2E"/>
</svg>
