<svg width="112" height="112" viewBox="0 0 112 112" fill="none" xmlns="http://www.w3.org/2000/svg">
<path d="M84 81H86.5C86.5 80.878 86.4911 80.7563 86.4733 80.6356L84 81ZM29 81L26.5267 80.6356C26.5089 80.7563 26.5 80.878 26.5 81H29ZM37.3929 26C37.3929 24.6193 36.2736 23.5 34.8929 23.5C33.5121 23.5 32.3929 24.6193 32.3929 26H37.3929ZM80.6071 26C80.6071 24.6193 79.4879 23.5 78.1071 23.5C76.7264 23.5 75.6071 24.6193 75.6071 26H80.6071ZM41.7679 46H39.2679C39.2679 47.3807 40.3871 48.5 41.7679 48.5V46ZM71.2321 46V48.5C72.6129 48.5 73.7321 47.3807 73.7321 46H71.2321ZM71.2321 36.369H73.7321C73.7321 34.9883 72.6129 33.869 71.2321 33.869V36.369ZM41.7679 36.369V33.869C40.3871 33.869 39.2679 34.9883 39.2679 36.369H41.7679ZM33.2723 52L30.799 51.6356L33.2723 52ZM79.7277 52L82.201 51.6356L79.7277 52ZM29 93H26.5C26.5 94.3807 27.6193 95.5 29 95.5V93ZM36.8571 93V95.5C38.2379 95.5 39.3571 94.3807 39.3571 93H36.8571ZM36.8571 89V86.5C35.4764 86.5 34.3571 87.6193 34.3571 89H36.8571ZM76.1429 89H78.6429C78.6429 87.6193 77.5236 86.5 76.1429 86.5V89ZM76.1429 93H73.6429C73.6429 94.3807 74.7621 95.5 76.1429 95.5V93ZM84 93V95.5C85.3807 95.5 86.5 94.3807 86.5 93H84ZM84 78.5H29V83.5H84V78.5ZM37.3929 41V30H32.3929V41H37.3929ZM37.3929 30V26H32.3929V30H37.3929ZM34.8929 32.5H78.1071V27.5H34.8929V32.5ZM75.6071 30V41H80.6071V30H75.6071ZM75.6071 26V30H80.6071V26H75.6071ZM41.7679 48.5H71.2321V43.5H41.7679V48.5ZM71.2321 33.869H41.7679V38.869H71.2321V33.869ZM39.2679 36.369V41H44.2679V36.369H39.2679ZM39.2679 41V46H44.2679V41H39.2679ZM34.8929 43.5H41.7679V38.5H34.8929V43.5ZM71.2321 43.5H78.1071V38.5H71.2321V43.5ZM73.7321 46V41H68.7321V46H73.7321ZM73.7321 41V36.369H68.7321V41H73.7321ZM31.4733 81.3644L35.7456 52.3644L30.799 51.6356L26.5267 80.6356L31.4733 81.3644ZM35.7456 52.3644L37.3662 41.3644L32.4196 40.6356L30.799 51.6356L35.7456 52.3644ZM75.6338 41.3644L77.2544 52.3644L82.201 51.6356L80.5804 40.6356L75.6338 41.3644ZM77.2544 52.3644L81.5267 81.3644L86.4733 80.6356L82.201 51.6356L77.2544 52.3644ZM33.2723 54.5H79.7277V49.5H33.2723V54.5ZM29 95.5H36.8571V90.5H29V95.5ZM39.3571 93V89H34.3571V93H39.3571ZM36.8571 91.5H76.1429V86.5H36.8571V91.5ZM73.6429 89V93H78.6429V89H73.6429ZM76.1429 95.5H84V90.5H76.1429V95.5ZM86.5 93V81H81.5V93H86.5ZM26.5 81V93H31.5V81H26.5Z" fill="#F3AC2E"/>
<path fill-rule="evenodd" clip-rule="evenodd" d="M71.7258 13.3532C72.7841 12.3754 72.7841 10.7901 71.7258 9.81239L62.5831 0.73332C61.5249 -0.24444 59.809 -0.24444 58.7507 0.73332C57.6924 1.71108 57.6924 3.29634 58.7507 4.2741L63.2673 9.07907H40.9038C40.9038 9.07907 40.0005 9.318 40.0004 11.5827C40.0004 13.8474 40.9038 14.0865 40.9038 14.0865H63.2673L58.7507 19.7259C57.6924 20.7037 57.6924 22.2889 58.7507 23.2667C59.809 24.2444 61.5249 24.2444 62.5831 23.2667L71.7258 13.3532Z" fill="#F3AC2E"/>
</svg>
