<svg width="112" height="112" viewBox="0 0 112 112" fill="none" xmlns="http://www.w3.org/2000/svg">
<path d="M43.9844 83.9971C48.4027 83.9971 51.9844 80.4153 51.9844 75.9971C51.9844 71.5788 48.4027 67.9971 43.9844 67.9971C39.5661 67.9971 35.9844 71.5788 35.9844 75.9971C35.9844 80.4153 39.5661 83.9971 43.9844 83.9971Z" stroke="#F3AC2E" stroke-width="5" stroke-linecap="round" stroke-linejoin="round"/>
<path d="M84.0156 83.9971C88.4339 83.9971 92.0156 80.4153 92.0156 75.9971C92.0156 71.5788 88.4339 67.9971 84.0156 67.9971C79.5973 67.9971 76.0156 71.5788 76.0156 75.9971C76.0156 80.4153 79.5973 83.9971 84.0156 83.9971Z" stroke="#F3AC2E" stroke-width="5" stroke-linecap="round" stroke-linejoin="round"/>
<path d="M36 76H28V62M28 28H68V76M52 76H76M92 76H100V52M100 52H68M100 52L88 32H68" stroke="#F3AC2E" stroke-width="5" stroke-linecap="round" stroke-linejoin="round"/>
<path d="M11.9766 39.9971H27.9766" stroke="#F3AC2E" stroke-width="5" stroke-linecap="round" stroke-linejoin="round"/>
<path d="M16.0234 52.001H28.0234" stroke="#F3AC2E" stroke-width="5" stroke-linecap="round" stroke-linejoin="round"/>
<path d="M59.9844 56.6027C59.9844 57.6227 59.6955 58.4441 59.1177 59.0669C58.5504 59.6896 57.8307 60.001 56.9588 60.001C56.0868 60.001 55.3672 59.6896 54.7999 59.0669C54.2326 58.4441 53.9489 57.6227 53.9489 56.6027V49.4519L50.7185 53.3333L51.7585 54.8633C52.1892 55.4646 52.4046 56.1196 52.4046 56.8282C52.4046 57.6979 52.1157 58.4441 51.5379 59.0669C50.9706 59.6896 50.272 60.001 49.442 60.001C48.9378 60.001 48.444 59.856 47.9607 59.5661C47.488 59.2762 47.0993 58.8951 46.7946 58.4226L42.0041 50.998V56.6027C42.0041 57.6227 41.7204 58.4441 41.1531 59.0669C40.5858 59.6896 39.8609 60.001 38.9785 60.001C38.1065 60.001 37.3869 59.6896 36.8196 59.0669C36.2628 58.4441 35.9844 57.6227 35.9844 56.6027V40.8033C35.9844 40.1376 36.289 39.5041 36.8984 38.9029C37.5182 38.3016 38.2326 38.001 39.0415 38.001C39.5668 38.001 40.0185 38.1245 40.3967 38.3714C40.7749 38.6076 41.1164 38.9458 41.421 39.386C41.7362 39.8263 42.0408 40.2772 42.335 40.7389L47.2674 48.3568L53.4289 40.6423C54.2693 39.59 54.9049 38.8868 55.3357 38.5325C55.7769 38.1781 56.2969 38.001 56.8957 38.001C57.7047 38.001 58.4191 38.307 59.0389 38.919C59.6692 39.5203 59.9844 40.1484 59.9844 40.8033V56.6027Z" fill="#F3AC2E"/>
</svg>
