<svg width="112" height="112" viewBox="0 0 112 112" fill="none" xmlns="http://www.w3.org/2000/svg">
<path fill-rule="evenodd" clip-rule="evenodd" d="M94.872 30.192L90.4124 29.1396L78.3601 41.1272L71.5334 34.1726L83.2885 21.8361L82.2594 17.3065C79.7753 16.4752 77.1771 16.0352 74.558 16.0025C71.7007 15.9585 68.8651 16.5036 66.2277 17.6039C63.6811 18.7569 61.3793 20.3878 59.4468 22.408C57.2956 24.4465 55.5919 26.9103 54.444 29.6429C52.234 35.0813 52.234 41.1679 54.444 46.6063C42.5245 58.3365 30.759 70.2222 19.1503 82.2602C17.9496 83.833 17.3779 85.7948 17.5266 87.7679C17.6437 89.8901 18.5978 91.8792 20.1794 93.2984C20.8884 94.0705 21.7346 94.7111 22.678 95.1744C23.6499 95.6033 24.6962 95.8492 25.7539 95.9007C27.5607 95.8664 29.293 95.1801 30.6366 93.9733C39.4872 85.6403 56.4451 68.5225 66.079 58.4909C68.6919 59.6005 71.4991 60.1724 74.335 60.1667C77.1896 60.1644 80.0148 59.5899 82.6436 58.4769C85.2725 57.3639 87.6517 55.7351 89.6406 53.6868C93.726 49.5189 96.0077 43.9103 95.9926 38.0731C96.0587 35.4021 95.68 32.7387 94.872 30.192ZM27.1776 89.9184C26.9575 90.1138 26.6923 90.2514 26.4057 90.3187C26.1239 90.3675 25.8357 90.3675 25.5538 90.3187C25.2583 90.2737 24.9768 90.1622 24.7305 89.9927C24.4662 89.838 24.2428 89.6223 24.0787 89.3636C23.2783 88.5457 22.5293 86.9901 23.2783 86.115C31.1112 77.782 47.2401 61.4936 57.3256 51.5363C57.8974 52.2912 58.5263 53.0119 59.2009 53.6868C59.8756 54.3902 60.6017 55.0422 61.3736 55.637C51.6196 65.6458 35.7137 81.7398 27.1833 89.9184H27.1776ZM90.744 38.0731C90.7555 42.4484 89.0517 46.652 85.9871 49.7862C82.929 52.7871 78.8161 54.4681 74.5322 54.4681C70.2484 54.4681 66.1355 52.7871 63.0774 49.7862C60.836 47.4464 59.3049 44.5181 58.6622 41.342C58.0195 38.1658 58.2916 34.8724 59.4468 31.8448C60.2157 29.7844 61.4085 27.9083 62.9478 26.3379C64.4871 24.7676 66.3388 23.5378 68.3831 22.7283C70.3242 21.9157 72.4081 21.4995 74.5122 21.5044H75.9645L65.5759 32.2166V36.1972L76.4104 46.9838H80.1839L90.744 36.5976V38.0731ZM28.9328 48.5108H37.6862L41.717 52.6115L45.5934 48.7567L41.7913 44.8791V44.6331L42.1172 35.2021L40.8594 32.7027L24.5075 21.9391L21.1285 22.3165L16.3774 27.1722L16 30.598L26.5086 47.2869L28.9328 48.5165V48.5108ZM23.5299 27.7384L36.76 36.4546L36.537 42.8773H30.3851L21.8547 29.3684L23.5299 27.7384ZM64.1522 67.5446L68.0058 63.6955L85.7641 81.9114C87.2599 83.4839 88.0941 85.5715 88.0941 87.7422C88.0941 89.9128 87.2599 92.0004 85.7641 93.573C84.6394 94.728 83.1931 95.5176 81.6135 95.8389C80.0339 96.1603 78.3942 95.9984 76.9078 95.3745C75.9592 94.9536 75.1084 94.3401 74.4093 93.573L56.4451 75.2541L60.3273 71.3765L78.2343 89.6438C78.4751 89.9095 78.7746 90.1152 79.109 90.2443C79.7671 90.5117 80.5035 90.5117 81.1616 90.2443C81.4959 90.115 81.7954 89.9093 82.0364 89.6438C82.2866 89.3958 82.4815 89.0976 82.6081 88.7688C82.7393 88.4332 82.809 88.0767 82.8139 87.7164C82.8082 87.3567 82.7405 87.0007 82.6138 86.6641C82.4872 86.3353 82.2923 86.037 82.0421 85.789L64.1522 67.5446Z" fill="#F3AC2E"/>
</svg>
